<svg id="SvgjsSvg1001" width="288" height="288" xmlns="http://www.w3.org/2000/svg" version="1.1" xmlns:xlink="http://www.w3.org/1999/xlink" xmlns:svgjs="http://svgjs.com/svgjs"><defs id="SvgjsDefs1002"></defs><g id="SvgjsG1008"><svg xmlns="http://www.w3.org/2000/svg" xmlns:xlink="http://www.w3.org/1999/xlink" viewBox="0 0 64 64" width="288" height="288"><defs><path id="a" d="M.06 64V.04H64V64z" class="selectable"></path></defs><g fill-rule="evenodd"><path fill="#f1660d" d="M44 43a2 2 0 1 1-4 0v-6a2 2 0 1 1 4 0v6zm-10 0a2 2 0 1 1-4 0v-6a2 2 0 1 1 4 0v6zm-10 0a2 2 0 1 1-4 0v-6a2 2 0 1 1 4 0v6zm25-19h-9.607l-6.372 8.604-.088.12-.105.104A3.97 3.97 0 0 1 30 34a3.971 3.971 0 0 1-2.828-1.172A3.97 3.97 0 0 1 26 30a3.97 3.97 0 0 1 1.052-2.704L29.493 24H10a2 2 0 1 0 0 4h2.222L16 45a3 3 0 0 0 3 3h26a3 3 0 0 0 3-3l3.778-17H54a2 2 0 1 0 0-4h-5z" class="svgShape colorfffffe-3 selectable"></path><mask id="b" fill="#fff" class="svgShape colorffffff-4"><use xlink:href="#a" class="selectable"></use></mask><path fill="#080801" d="M28.586 31.414c.39.391.902.586 1.414.586a1.99 1.99 0 0 0 1.414-.586L42.828 16a1.998 1.998 0 0 0-1.414-3.414c-.512 0-1.023.195-1.414.586L28.586 28.586a2 2 0 0 0 0 2.828" mask="url(#b)" class="svgShape colorfffffe-6 selectable"></path><path fill="#bebeb6" d="M56 26a2 2 0 0 1-2 2h-2.222L48 45a3 3 0 0 1-3 3H19a3 3 0 0 1-3-3l-3.778-17H10a2 2 0 1 1 0-4h19.493l-2.441 3.296A3.97 3.97 0 0 0 26 30a3.97 3.97 0 0 0 1.172 2.828A3.971 3.971 0 0 0 30 34a3.97 3.97 0 0 0 2.828-1.172l.105-.104.088-.12L39.393 24H54a2 2 0 0 1 2 2zM40 13.172a1.992 1.992 0 0 1 1.414-.586A1.998 1.998 0 0 1 42.828 16L31.414 31.414A1.99 1.99 0 0 1 30 32a2 2 0 0 1-1.414-3.414L40 13.172zM32 0C14.327 0 0 14.327 0 32c0 17.673 14.327 32 32 32 17.673 0 32-14.327 32-32C64 14.327 49.673 0 32 0z" mask="url(#b)" class="svgShape color4c5665-7 selectable"></path><path fill="#121c2b" d="M22 35a2 2 0 0 0-2 2v6a2 2 0 1 0 4 0v-6a2 2 0 0 0-2-2M42 35a2 2 0 0 0-2 2v6a2 2 0 1 0 4 0v-6a2 2 0 0 0-2-2M32 35a2 2 0 0 0-2 2v6a2 2 0 1 0 4 0v-6a2 2 0 0 0-2-2" class="svgShape color4c5665-8 selectable"></path></g></svg></g></svg>