<svg id="SvgjsSvg1001" width="288" height="288" xmlns="http://www.w3.org/2000/svg" version="1.1" xmlns:xlink="http://www.w3.org/1999/xlink" xmlns:svgjs="http://svgjs.com/svgjs"><defs id="SvgjsDefs1002"></defs><g id="SvgjsG1008"><svg xmlns="http://www.w3.org/2000/svg" viewBox="0 0 24 24" width="288" height="288"><g><path d="m13.41 12 4.3-4.29a1 1 0 1 0-1.42-1.42L12 10.59l-4.29-4.3a1 1 0 0 0-1.42 1.42l4.3 4.29-4.3 4.29a1 1 0 0 0 0 1.42 1 1 0 0 0 1.42 0l4.29-4.3 4.29 4.3a1 1 0 0 0 1.42 0 1 1 0 0 0 0-1.42z" fill="#ffffff" class="svgShape color000000-1 selectable"></path></g></svg></g></svg>